<svg xmlns="http://www.w3.org/2000/svg" version="1.1" xmlns:xlink="http://www.w3.org/1999/xlink" xmlns:svgjs="http://svgjs.dev/svgjs" width="1000" height="1000" viewBox="0 0 1000 1000"><rect width="1000" height="1000" fill="#ffffff"></rect><g transform="matrix(0.7,0,0,0.7,150.0000000000001,106.25)"><svg viewBox="0 0 320 360" data-background-color="#ffffff" preserveAspectRatio="xMidYMid meet" height="1125" width="1000" xmlns="http://www.w3.org/2000/svg" xmlns:xlink="http://www.w3.org/1999/xlink"><g id="tight-bounds" transform="matrix(1,0,0,1,0,0)"><svg viewBox="0 0 320 360" height="360" width="320"><g><svg></svg></g><g><svg viewBox="0 0 320 360" height="360" width="320"><g><path xmlns="http://www.w3.org/2000/svg" d="M20.961 227.22l3.726 4.658-1.863-6.056c-0.466-2.795-3.726 0.466-1.863 1.398M25.153 224.425c1.397 2.329 2.795 4.658 2.795 6.987 0 3.261 2.795 4.658 5.123 5.589-3.261-3.726-5.124-13.974-7.918-12.576M204.017 26.929c7.918 0 15.371-0.932 23.756 0.931 20.495 5.124 37.729 15.371 49.374 29.811l32.606 52.169c1.397 13.042 4.192 27.482 3.726 43.319 3.261 0 2.795-4.658 6.521-5.59-3.726 9.316-5.59 20.961-6.521 34.469-2.329-7.453 0-18.632 0.466-24.687-3.261 5.124-5.124 1.397-5.124-0.932 0.466-3.726-1.397-3.261-2.795-4.658-5.124-4.658-8.384-9.782-12.11-17.7 2.329-6.055 2.795-14.905-4.658-19.563-2.329-1.397-5.124-3.726-6.521-7.453-1.863-5.124-5.124-11.179-4.193-19.097 0.466-2.329-6.987 5.124-11.179 1.863-18.166-12.576-36.332-27.016-58.224-39.127-11.645 0-20.029-4.192-24.221-9.316-3.726-4.658-0.932-10.713 4.658-11.179 3.261 0 6.987-0.932 9.782 0.932 0.466-1.863 2.329-4.192 4.657-4.192M157.904 16.215l0.932 0.466c4.658 0.932 6.987 7.453 12.11 5.124 0 3.261 0.466 6.521-0.466 8.85-1.397 3.726-5.59 3.726-8.85 3.726-31.208-1.863-49.374 11.179-68.471 22.358-5.124 3.261-10.713 5.59-14.906 9.782-20.029 18.632-41.921 35.866-47.045 70.335l-4.192 38.195c-0.466 4.192-5.124 8.384-4.192 13.508l3.26 22.824c-3.261-3.261-5.124 0.932-4.192 2.795 0.466 1.397 2.329 6.055 5.124 1.863 3.726 6.987 7.453 20.495 12.576 26.55 15.837 18.632 36.332 35.4 53.101 52.169 4.192-0.932 7.453-0.932 8.384-3.727 1.397 2.795-1.397 5.59-3.726 6.056 7.453 4.658 15.837 8.85 27.016 9.781 14.44 0.932 27.948 3.261 40.524 6.522 6.521-1.863 13.042-2.795 20.029-3.261 2.329 0 3.726-3.726 6.521-4.658l0.466-4.658c2.795 4.192 2.329-1.397 0.466-4.192 3.261 2.795 4.192 5.124 5.589 6.987 0-1.397 3.726-6.521 3.727-0.466l0.931-6.055c1.397-0.932 1.863 5.124 3.261 0.931 1.397-4.192 4.192-0.932 6.987-2.329-0.932 1.863-0.466 5.59 2.794 3.261l3.727-3.261c2.329 5.59 6.055 3.261 7.918 2.329 20.495-13.042 40.99-28.413 60.553-43.784l-0.466 6.055 2.329-7.453c2.329 2.329 4.192 0.466 5.124-0.931 2.795-4.658 6.521-9.316 12.577-13.508-7.453 20.029-16.303 35.866-27.482 48.908l-4.658 5.59c0 3.261-0.932 7.453-4.658 7.918-1.863 0.466-5.59-0.932-8.384 1.863-1.397 1.863 3.261 5.59-0.466 2.795-3.261-2.329-6.521 0-10.248 0.932-2.795 0.932 1.863 3.726 2.795 5.589 0.932 1.863 1.863 3.726 1.398 6.056l-5.124-5.59c-6.055 3.261-9.782 9.316-14.906 13.974-2.329 1.863-1.397 5.124-1.397 7.918-3.261 0-6.987-0.932-8.85 0.932-1.397 1.863-0.932 4.658-0.932 7.453-4.658-0.466-5.124-7.453-9.315-6.056-4.192 0.932-8.85 1.397-12.577 3.727 2.795 5.59-4.658 2.329-3.726 3.26-6.987-4.192-13.042-7.453-20.495-4.658-15.837-5.124-35.4-2.795-49.84-0.931 0-2.329 0.466-4.658-0.466-5.124-0.932 2.329-3.726 1.397-3.26 1.397-8.85-6.055-17.7-9.782-27.016-14.905-8.384 0.932-16.303-3.261-18.632-5.59-6.521-6.055-13.974-2.795-20.029-4.192-13.042-3.261-17.7-16.769-19.098-26.084-0.932-4.658-4.658-6.521-6.055-6.056-6.055-19.563-15.371-37.263-22.824-55.429-1.863-4.658-1.397-9.316-1.397-14.44 2.329 0.932 4.658 0.466 4.192-2.794-2.329-15.371-7.918-27.016-13.974-38.195 3.261-15.837 3.726-34.469 11.179-48.443 6.521-12.576 18.632-19.098 27.016-29.811 2.795-3.726 2.795-8.85 5.59-12.11 9.316-9.316 18.632-19.098 28.879-27.482 4.658-3.726 10.247 0 17.234-1.397 2.329-8.384 11.645-15.837 20.495-13.508 3.726 0.932 11.179-8.85 13.508-9.782 3.726-1.397 1.863 3.726 1.863 6.987 8.85-6.987 20.961-10.713 32.14-14.906" fill="#1ebbd7" fill-rule="nonzero" stroke="none" stroke-width="1" stroke-linecap="butt" stroke-linejoin="miter" stroke-miterlimit="10" stroke-dasharray="" stroke-dashoffset="0" font-family="none" font-weight="none" font-size="none" text-anchor="none" style="mix-blend-mode: normal" data-fill-palette-color="tertiary"></path></g><g transform="matrix(1,0,0,1,64,109.31530308874221)"><svg viewBox="0 0 192 141.36939382251558" height="141.36939382251558" width="192"><g><svg viewBox="0 0 192 141.36939382251558" height="141.36939382251558" width="192"><g><svg viewBox="0 0 192 141.36939382251558" height="141.36939382251558" width="192"><g transform="matrix(1,0,0,1,0,84.18038034880635)"><svg viewBox="0 0 192 57.18901347370921" height="57.18901347370921" width="192"><g id="textblocktransform"><svg viewBox="0 0 192 57.18901347370921" height="57.18901347370921" width="192" id="textblock"><g><svg viewBox="0 0 192 35.25920155793573" height="35.25920155793573" width="192"><g transform="matrix(1,0,0,1,0,0)"><svg width="192" viewBox="4.25 -36.5 256.7300109863281 47.150001525878906" height="35.25920155793573" data-palette-color="#1ebbd7"><path d="M30.15 0L8.75-27.2 8.75 0 4.25 0 4.25-35.5 8.05-35.5 29.75-7.75 29.75-35.45 34.25-35.45 34.25 0 30.15 0ZM53.15 0.5L53.15 0.5Q50.2 0.5 47.77-0.58 45.35-1.65 43.57-3.53 41.8-5.4 40.82-7.85 39.85-10.3 39.85-13.05L39.85-13.05Q39.85-16.75 41.55-19.8 43.25-22.85 46.27-24.7 49.3-26.55 53.2-26.55L53.2-26.55Q57.15-26.55 60.07-24.68 63-22.8 64.62-19.78 66.25-16.75 66.25-13.25L66.25-13.25Q66.25-12.75 66.22-12.28 66.2-11.8 66.15-11.55L66.15-11.55 44.5-11.55Q44.7-9 45.92-7.03 47.15-5.05 49.1-3.93 51.05-2.8 53.3-2.8L53.3-2.8Q55.7-2.8 57.82-4 59.95-5.2 60.75-7.15L60.75-7.15 64.55-6.1Q63.7-4.2 62.02-2.7 60.35-1.2 58.07-0.35 55.8 0.5 53.15 0.5ZM44.35-14.6L44.35-14.6 62.15-14.6Q61.95-17.15 60.7-19.1 59.45-21.05 57.5-22.15 55.55-23.25 53.2-23.25L53.2-23.25Q50.9-23.25 48.95-22.15 47-21.05 45.77-19.1 44.55-17.15 44.35-14.6ZM85.19 0.5L85.19 0.5Q82 0.5 79.5-1.1 77-2.7 75.55-5.15L75.55-5.15 75.55 10.65 71.14 10.65 71.14-26.1 75.05-26.1 75.05-21.2Q76.59-23.6 79.09-25.08 81.59-26.55 84.55-26.55L84.55-26.55Q87.25-26.55 89.5-25.45 91.75-24.35 93.39-22.45 95.05-20.55 95.97-18.13 96.89-15.7 96.89-13.05L96.89-13.05Q96.89-9.35 95.42-6.25 93.94-3.15 91.3-1.33 88.64 0.5 85.19 0.5ZM83.84-3.3L83.84-3.3Q85.8-3.3 87.37-4.13 88.94-4.95 90.07-6.33 91.19-7.7 91.8-9.45 92.39-11.2 92.39-13.05L92.39-13.05Q92.39-15 91.72-16.75 91.05-18.5 89.82-19.85 88.59-21.2 86.97-21.98 85.34-22.75 83.44-22.75L83.44-22.75Q82.25-22.75 80.97-22.3 79.69-21.85 78.55-21.03 77.39-20.2 76.59-19.15 75.8-18.1 75.55-16.9L75.55-16.9 75.55-9.45Q76.3-7.75 77.55-6.35 78.8-4.95 80.44-4.13 82.09-3.3 83.84-3.3ZM100.24-7.55L100.24-7.55Q100.24-10.05 101.67-11.88 103.09-13.7 105.59-14.7 108.09-15.7 111.39-15.7L111.39-15.7Q113.14-15.7 115.09-15.43 117.04-15.15 118.54-14.6L118.54-14.6 118.54-16.5Q118.54-19.5 116.74-21.23 114.94-22.95 111.64-22.95L111.64-22.95Q109.49-22.95 107.52-22.18 105.54-21.4 103.34-19.95L103.34-19.95 101.74-23.05Q104.29-24.8 106.84-25.68 109.39-26.55 112.14-26.55L112.14-26.55Q117.14-26.55 120.04-23.78 122.94-21 122.94-16.05L122.94-16.05 122.94-5Q122.94-4.2 123.27-3.83 123.59-3.45 124.34-3.4L124.34-3.4 124.34 0Q123.69 0.1 123.22 0.15 122.74 0.2 122.44 0.2L122.44 0.2Q120.89 0.2 120.12-0.65 119.34-1.5 119.24-2.45L119.24-2.45 119.14-4.1Q117.44-1.9 114.69-0.7 111.94 0.5 109.24 0.5L109.24 0.5Q106.64 0.5 104.59-0.58 102.54-1.65 101.39-3.48 100.24-5.3 100.24-7.55ZM117.24-5.7L117.24-5.7Q117.84-6.4 118.19-7.13 118.54-7.85 118.54-8.35L118.54-8.35 118.54-11.6Q116.99-12.2 115.29-12.53 113.59-12.85 111.94-12.85L111.94-12.85Q108.59-12.85 106.52-11.53 104.44-10.2 104.44-7.9L104.44-7.9Q104.44-6.65 105.12-5.48 105.79-4.3 107.12-3.55 108.44-2.8 110.39-2.8L110.39-2.8Q112.44-2.8 114.29-3.63 116.14-4.45 117.24-5.7ZM130.09-5.15L130.09-36.5 134.49-36.5 134.49-6.75Q134.49-4.6 135.09-4.1 135.69-3.6 136.54-3.6L136.54-3.6Q137.59-3.6 138.54-3.83 139.49-4.05 140.14-4.3L140.14-4.3 140.84-0.7Q139.74-0.25 138.24 0.05 136.74 0.35 135.59 0.35L135.59 0.35Q133.04 0.35 131.56-1.1 130.09-2.55 130.09-5.15L130.09-5.15ZM194.79-15.6L194.79 0 190.39 0 190.39-14.6Q190.39-18.7 189.06-20.65 187.74-22.6 185.14-22.6L185.14-22.6Q182.49-22.6 180.34-20.68 178.19-18.75 177.29-15.7L177.29-15.7 177.29 0 172.89 0 172.89-14.6Q172.89-18.75 171.59-20.68 170.29-22.6 167.69-22.6L167.69-22.6Q165.09-22.6 162.91-20.73 160.74-18.85 159.84-15.75L159.84-15.75 159.84 0 155.44 0 155.44-26.1 159.44-26.1 159.44-20.5Q161.04-23.4 163.59-24.98 166.14-26.55 169.34-26.55L169.34-26.55Q172.59-26.55 174.54-24.78 176.49-23 176.94-20.2L176.94-20.2Q178.69-23.3 181.19-24.93 183.69-26.55 186.89-26.55L186.89-26.55Q189.14-26.55 190.66-25.73 192.19-24.9 193.09-23.43 193.99-21.95 194.39-19.95 194.79-17.95 194.79-15.6L194.79-15.6ZM199.58-7.55L199.58-7.55Q199.58-10.05 201.01-11.88 202.43-13.7 204.93-14.7 207.43-15.7 210.73-15.7L210.73-15.7Q212.48-15.7 214.43-15.43 216.38-15.15 217.88-14.6L217.88-14.6 217.88-16.5Q217.88-19.5 216.08-21.23 214.28-22.95 210.98-22.95L210.98-22.95Q208.83-22.95 206.86-22.18 204.88-21.4 202.68-19.95L202.68-19.95 201.08-23.05Q203.63-24.8 206.18-25.68 208.73-26.55 211.48-26.55L211.48-26.55Q216.48-26.55 219.38-23.78 222.28-21 222.28-16.05L222.28-16.05 222.28-5Q222.28-4.2 222.61-3.83 222.93-3.45 223.68-3.4L223.68-3.4 223.68 0Q223.03 0.1 222.56 0.15 222.08 0.2 221.78 0.2L221.78 0.2Q220.23 0.2 219.46-0.65 218.68-1.5 218.58-2.45L218.58-2.45 218.48-4.1Q216.78-1.9 214.03-0.7 211.28 0.5 208.58 0.5L208.58 0.5Q205.98 0.5 203.93-0.58 201.88-1.65 200.73-3.48 199.58-5.3 199.58-7.55ZM216.58-5.7L216.58-5.7Q217.18-6.4 217.53-7.13 217.88-7.85 217.88-8.35L217.88-8.35 217.88-11.6Q216.33-12.2 214.63-12.53 212.93-12.85 211.28-12.85L211.28-12.85Q207.93-12.85 205.86-11.53 203.78-10.2 203.78-7.9L203.78-7.9Q203.78-6.65 204.46-5.48 205.13-4.3 206.46-3.55 207.78-2.8 209.73-2.8L209.73-2.8Q211.78-2.8 213.63-3.63 215.48-4.45 216.58-5.7ZM243.13-26.25L243.13-22.25Q239.83-22.2 237.31-20.58 234.78-18.95 233.73-16.1L233.73-16.1 233.73 0 229.33 0 229.33-26.1 233.43-26.1 233.43-20.05Q234.78-22.75 237.01-24.43 239.23-26.1 241.68-26.3L241.68-26.3Q242.18-26.3 242.53-26.3 242.88-26.3 243.13-26.25L243.13-26.25ZM259.93-4.8L260.98-1.3Q260.43-1.05 259.48-0.65 258.53-0.25 257.28 0.05 256.03 0.35 254.63 0.35L254.63 0.35Q253.03 0.35 251.68-0.23 250.33-0.8 249.53-2.02 248.73-3.25 248.73-5.1L248.73-5.1 248.73-22.65 245.18-22.65 245.18-26.1 248.73-26.1 248.73-34.8 253.13-34.8 253.13-26.1 258.98-26.1 258.98-22.65 253.13-22.65 253.13-6.45Q253.23-5.05 254.08-4.38 254.93-3.7 256.08-3.7L256.08-3.7Q257.38-3.7 258.48-4.15 259.58-4.6 259.93-4.8L259.93-4.8Z" opacity="1" transform="matrix(1,0,0,1,0,0)" fill="#1ebbd7" class="wordmark-text-0" data-fill-palette-color="primary" id="text-0"></path></svg></g></svg></g><g transform="matrix(1,0,0,1,0,40.404365286075944)"><svg viewBox="0 0 192 16.784648187633262" height="16.784648187633262" width="192"><g transform="matrix(1,0,0,1,0,0)"><svg width="192" viewBox="1.149999976158142 -35.099998474121094 539.3499755859375 47.14999771118164" height="16.784648187633262" data-palette-color="#4b91f1"><path d="M25.95 0L1.15 0 1.15-1.05 2.15-1.4Q3.05-1.65 3.4-2.27 3.75-2.9 3.8-4L3.8-4 3.8-29.15Q3.75-30.2 3.45-30.78 3.15-31.35 2.2-31.65L2.2-31.65 1.15-32 1.15-33.05 24.95-33.05 25.3-25.05 23.9-25.05 21.9-29.55Q21.5-30.5 21-31.03 20.5-31.55 19.5-31.55L19.5-31.55 11-31.55Q10.95-28.45 10.95-25.18 10.95-21.9 10.95-17.8L10.95-17.8 15.9-17.8Q16.9-17.8 17.43-18.32 17.95-18.85 18.4-19.75L18.4-19.75 19.25-21.65 20.35-21.65 20.35-12.4 19.25-12.4 18.35-14.3Q17.95-15.2 17.45-15.75 16.95-16.3 15.95-16.3L15.95-16.3 10.95-16.3Q10.95-12.7 10.95-10.1 10.95-7.5 10.98-5.48 11-3.45 11-1.5L11-1.5 20.6-1.5Q21.6-1.5 22.15-2.02 22.7-2.55 23.05-3.5L23.05-3.5 24.9-8 26.3-8 25.95 0ZM42.7 0.15L39.8 0.15 31-21Q30.45-22.4 29.05-22.8L29.05-22.8 28-23.05 28-24 40.65-24 40.65-23.05 39.35-22.75Q37.75-22.35 38.4-20.7L38.4-20.7 43.65-6.75 48.55-20.6Q48.8-21.45 48.68-21.98 48.55-22.5 47.7-22.7L47.7-22.7 46.25-23.05 46.25-24 53.85-24 53.85-23.05 52.2-22.65Q50.75-22.3 50.25-20.85L50.25-20.85 42.7 0.15ZM67.65-24.75L67.65-24.75Q70.8-24.75 73.05-23.45 75.3-22.15 76.53-19.88 77.75-17.6 77.75-14.65L77.75-14.65Q77.75-14 77.7-13.43 77.65-12.85 77.5-12.35L77.5-12.35 62.45-12.35Q62.5-7.2 64.38-4.95 66.25-2.7 69.85-2.7L69.85-2.7Q72.35-2.7 73.9-3.53 75.45-4.35 76.75-5.85L76.75-5.85 77.55-5.1Q76.05-2.35 73.48-0.83 70.9 0.7 67.35 0.7L67.35 0.7Q63.8 0.7 61.1-0.8 58.4-2.3 56.88-5.13 55.35-7.95 55.35-11.9L55.35-11.9Q55.35-16 57.13-18.85 58.9-21.7 61.73-23.23 64.55-24.75 67.65-24.75ZM67.4-23.3L67.4-23.3Q65.95-23.3 64.88-22.48 63.8-21.65 63.18-19.58 62.55-17.5 62.45-13.75L62.45-13.75 71.4-13.75Q71.95-18.8 71-21.05 70.05-23.3 67.4-23.3ZM92.8 0L80.3 0 80.3-0.95 81.05-1.2Q82.05-1.45 82.43-2.05 82.8-2.65 82.8-3.65L82.8-3.65 82.8-18.3Q82.75-19.4 82.4-19.98 82.05-20.55 81.05-20.75L81.05-20.75 80.3-20.95 80.3-21.85 88.45-24.75 89.05-24.2 89.5-19.8 89.5-19.45Q90.25-20.85 91.4-22.05 92.55-23.25 93.9-24 95.25-24.75 96.6-24.75L96.6-24.75Q98.5-24.75 99.45-23.75 100.4-22.75 100.4-21.2L100.4-21.2Q100.4-19.5 99.45-18.63 98.5-17.75 97.15-17.75L97.15-17.75Q95.15-17.75 93.7-19.55L93.7-19.55 93.6-19.65Q93.1-20.25 92.48-20.33 91.85-20.4 91.25-19.7L91.25-19.7Q90.75-19.2 90.33-18.53 89.9-17.85 89.55-16.95L89.55-16.95 89.55-3.85Q89.55-2.9 89.95-2.27 90.35-1.65 91.3-1.4L91.3-1.4 92.8-0.95 92.8 0ZM106.45 12.05L106.45 12.05Q104.45 12.05 103.3 11.1 102.15 10.15 102.15 8.6L102.15 8.6Q102.15 7.2 103.13 6.38 104.1 5.55 105.3 5.55L105.3 5.55Q106.55 5.55 107.35 6 108.15 6.45 108.75 7.3L108.75 7.3 109.05 7.7Q110.2 9.1 111.2 7.65L111.2 7.65Q111.85 6.8 112.48 5.55 113.1 4.3 113.85 2.25L113.85 2.25 104.35-20.45Q104-21.4 103.55-21.93 103.1-22.45 102.2-22.8L102.2-22.8 101.35-23.1 101.35-24 113.7-24 113.7-23.1 112.65-22.8Q111.55-22.45 111.48-21.73 111.4-21 111.8-19.85L111.8-19.85 116.9-6.55 121.8-19.95Q122.2-21.05 122.1-21.8 122-22.55 120.85-22.8L120.85-22.8 119.75-23.1 119.75-24 127.2-24 127.2-23.1 126.1-22.75Q125-22.45 124.53-21.88 124.05-21.3 123.65-20.2L123.65-20.2 115.65 1.3Q113.65 6.8 111.58 9.43 109.5 12.05 106.45 12.05ZM138.25 0.7L138.25 0.7Q135.15 0.7 133.38-0.83 131.6-2.35 131.6-5.8L131.6-5.8Q131.6-7 131.63-8.08 131.65-9.15 131.65-10.6L131.65-10.6 131.65-22.45 128.1-22.45 128.1-23.55 129.45-23.75Q130.9-24 131.93-24.65 132.95-25.3 133.8-26.45L133.8-26.45 137.05-30.95 138.55-30.95 138.4-24 144.1-24 144.1-22.45 138.35-22.45 138.35-5.4Q138.35-3.6 139.13-2.7 139.9-1.8 141.05-1.8L141.05-1.8Q142.05-1.8 142.85-2.27 143.65-2.75 144.45-3.55L144.45-3.55 145.1-2.8Q144.15-1.15 142.45-0.23 140.75 0.7 138.25 0.7ZM158.25 0L146.85 0 146.85-1 147.5-1.2Q149.3-1.75 149.3-3.7L149.3-3.7 149.3-29.45Q149.3-30.5 148.95-31.03 148.6-31.55 147.6-31.8L147.6-31.8 146.85-32 146.85-32.95 155.3-35.1 156.1-34.65 155.9-27.6 155.9-21.2Q157.65-22.65 159.73-23.7 161.8-24.75 164.2-24.75L164.2-24.75Q167.5-24.75 169.38-22.9 171.25-21.05 171.25-17.2L171.25-17.2 171.25-3.65Q171.25-2.65 171.65-2.05 172.05-1.45 173.05-1.15L173.05-1.15 173.5-1 173.5 0 162.1 0 162.1-1 162.7-1.2Q164.5-1.7 164.5-3.7L164.5-3.7 164.5-18.15Q164.5-20.2 163.8-21 163.1-21.8 161.35-21.8L161.35-21.8Q160.15-21.8 158.83-21.35 157.5-20.9 156.05-19.85L156.05-19.85 156.05-3.6Q156.05-2.6 156.45-2 156.85-1.4 157.8-1.15L157.8-1.15 158.25-1 158.25 0ZM181.3-27.5L181.3-27.5Q179.65-27.5 178.5-28.55 177.35-29.6 177.35-31.2L177.35-31.2Q177.35-32.85 178.5-33.88 179.65-34.9 181.3-34.9L181.3-34.9Q182.95-34.9 184.1-33.88 185.25-32.85 185.25-31.2L185.25-31.2Q185.25-29.6 184.1-28.55 182.95-27.5 181.3-27.5ZM187 0L175.55 0 175.55-0.95 176.3-1.15Q177.3-1.45 177.65-2.05 178-2.65 178.05-3.65L178.05-3.65 178.05-12.85Q178.05-14.4 178.05-15.73 178.05-17.05 178-18.45L178-18.45Q178-19.45 177.63-20.03 177.25-20.6 176.25-20.8L176.25-20.8 175.55-20.95 175.55-21.85 184.3-24.75 184.9-24.2 184.75-17.1 184.75-3.6Q184.75-2.6 185.13-2 185.5-1.4 186.45-1.1L186.45-1.1 187-0.95 187 0ZM200.65 0L189.2 0 189.2-0.95 190-1.15Q191.65-1.65 191.65-3.6L191.65-3.6 191.65-18.35Q191.6-19.4 191.3-19.98 191-20.55 190-20.75L190-20.75 189.2-20.95 189.2-21.85 197.3-24.75 197.9-24.2 198.25-21.1Q200.05-22.7 202.28-23.73 204.5-24.75 206.65-24.75L206.65-24.75Q209.95-24.75 211.73-22.95 213.5-21.15 213.5-17.45L213.5-17.45 213.5-3.55Q213.5-1.6 215.3-1.1L215.3-1.1 215.85-0.95 215.85 0 204.35 0 204.35-0.95 205.1-1.15Q206.75-1.7 206.75-3.6L206.75-3.6 206.75-18.45Q206.75-20.2 206-21 205.25-21.8 203.5-21.8L203.5-21.8Q201.05-21.8 198.4-19.65L198.4-19.65 198.4-3.55Q198.4-1.6 200.15-1.1L200.15-1.1 200.65-0.95 200.65 0ZM228.7-8.55L228.7-8.55Q225.4-8.55 223.05-9.65L223.05-9.65 223.05-7.85Q223.05-6.35 224.55-6.05L224.55-6.05 233.45-4.4Q236-3.9 237.95-3.18 239.9-2.45 241-1.13 242.1 0.2 242.1 2.45L242.1 2.45Q242.1 4.85 240.53 6.93 238.95 9 235.88 10.28 232.8 11.55 228.2 11.55L228.2 11.55Q224.25 11.55 221.93 10.73 219.6 9.9 218.6 8.6 217.6 7.3 217.6 5.8L217.6 5.8Q217.6 4 218.83 2.2 220.05 0.4 222-0.8L222-0.8Q218.95-1.95 218.95-4.45L218.95-4.45Q218.95-5.4 219.4-6.2 219.85-7 220.5-7.8L220.5-7.8 222.3-10.05Q218.7-12.15 218.7-16.6L218.7-16.6Q218.7-20.25 221.28-22.5 223.85-24.75 228.7-24.75L228.7-24.75Q233.55-24.75 236.2-22.5L236.2-22.5Q237.8-22.75 239.2-23.3 240.6-23.85 241.8-24.8L241.8-24.8 242.5-24.3 242.5-21.5 237.1-21.5Q238.7-19.5 238.7-16.6L238.7-16.6Q238.7-13.05 236.13-10.8 233.55-8.55 228.7-8.55ZM228.6-9.9L228.6-9.9Q230.7-9.9 231.68-11.53 232.65-13.15 232.65-16.75L232.65-16.75Q232.65-20.3 231.7-21.85 230.75-23.4 228.75-23.4L228.75-23.4Q226.75-23.4 225.78-21.83 224.8-20.25 224.8-16.65L224.8-16.65Q224.8-13.05 225.7-11.48 226.6-9.9 228.6-9.9ZM221.5 4.35L221.5 4.35Q221.5 7.1 223.25 8.47 225 9.85 228.8 9.85L228.8 9.85Q233 9.85 235.03 8.47 237.05 7.1 237.05 4.85L237.05 4.85Q237.05 3.45 236.03 2.65 235 1.85 232.6 1.4L232.6 1.4 223.65-0.35Q223.45-0.4 223.25-0.45L223.25-0.45Q222.5 0.55 222 1.85 221.5 3.15 221.5 4.35ZM262.5 0.7L262.5 0.7Q259.65 0.7 257.68-0.93 255.7-2.55 255.7-5.6L255.7-5.6Q255.7-8 258.03-10.03 260.35-12.05 265.35-13L265.35-13Q266.2-13.2 267.33-13.38 268.45-13.55 269.55-13.75L269.55-13.75 269.55-17.3Q269.55-20.7 268.7-22 267.85-23.3 266-23.3L266-23.3 265.85-23.3Q264.7-23.3 264.03-22.58 263.35-21.85 263.15-20.2L263.15-20.2 263-19.55Q262.85-17.55 261.95-16.63 261.05-15.7 259.7-15.7L259.7-15.7Q258.45-15.7 257.63-16.48 256.8-17.25 256.8-18.5L256.8-18.5Q256.8-20.55 258.2-21.95 259.6-23.35 261.93-24.05 264.25-24.75 266.95-24.75L266.95-24.75Q271.4-24.75 273.75-22.6 276.1-20.45 276.1-15.6L276.1-15.6 276.1-4.45Q276.1-2.3 278.15-2.3L278.15-2.3 279.3-2.3 279.8-1.75Q278.9-0.6 277.8 0.03 276.7 0.65 274.8 0.65L274.8 0.65Q272.65 0.65 271.38-0.38 270.1-1.4 269.7-3.1L269.7-3.1Q268.1-1.4 266.55-0.35 265 0.7 262.5 0.7ZM265.4-2.5L265.4-2.5Q266.4-2.5 267.3-2.95 268.2-3.4 269.55-4.45L269.55-4.45 269.55-12.45Q268.25-12.25 266.9-11.95L266.9-11.95Q264.75-11.45 263.43-10.1 262.1-8.75 262.1-6.45L262.1-6.45Q262.1-4.45 263.03-3.48 263.95-2.5 265.4-2.5ZM290.35 0.7L290.35 0.7Q287.25 0.7 285.48-0.83 283.7-2.35 283.7-5.8L283.7-5.8Q283.7-7 283.73-8.08 283.75-9.15 283.75-10.6L283.75-10.6 283.75-22.45 280.2-22.45 280.2-23.55 281.55-23.75Q283-24 284.03-24.65 285.05-25.3 285.9-26.45L285.9-26.45 289.15-30.95 290.65-30.95 290.5-24 296.2-24 296.2-22.45 290.45-22.45 290.45-5.4Q290.45-3.6 291.23-2.7 292-1.8 293.15-1.8L293.15-1.8Q294.15-1.8 294.95-2.27 295.75-2.75 296.55-3.55L296.55-3.55 297.2-2.8Q296.25-1.15 294.55-0.23 292.85 0.7 290.35 0.7ZM322.35 0L309.85 0 309.85-0.95 310.6-1.2Q311.6-1.45 311.98-2.05 312.35-2.65 312.35-3.65L312.35-3.65 312.35-18.3Q312.3-19.4 311.95-19.98 311.6-20.55 310.6-20.75L310.6-20.75 309.85-20.95 309.85-21.85 318-24.75 318.6-24.2 319.05-19.8 319.05-19.45Q319.8-20.85 320.95-22.05 322.1-23.25 323.45-24 324.8-24.75 326.15-24.75L326.15-24.75Q328.05-24.75 329-23.75 329.95-22.75 329.95-21.2L329.95-21.2Q329.95-19.5 329-18.63 328.05-17.75 326.7-17.75L326.7-17.75Q324.7-17.75 323.25-19.55L323.25-19.55 323.15-19.65Q322.65-20.25 322.03-20.33 321.4-20.4 320.8-19.7L320.8-19.7Q320.3-19.2 319.88-18.53 319.45-17.85 319.1-16.95L319.1-16.95 319.1-3.85Q319.1-2.9 319.5-2.27 319.9-1.65 320.85-1.4L320.85-1.4 322.35-0.95 322.35 0ZM337.4-27.5L337.4-27.5Q335.75-27.5 334.6-28.55 333.45-29.6 333.45-31.2L333.45-31.2Q333.45-32.85 334.6-33.88 335.75-34.9 337.4-34.9L337.4-34.9Q339.05-34.9 340.2-33.88 341.35-32.85 341.35-31.2L341.35-31.2Q341.35-29.6 340.2-28.55 339.05-27.5 337.4-27.5ZM343.1 0L331.65 0 331.65-0.95 332.4-1.15Q333.4-1.45 333.75-2.05 334.1-2.65 334.15-3.65L334.15-3.65 334.15-12.85Q334.15-14.4 334.15-15.73 334.15-17.05 334.1-18.45L334.1-18.45Q334.1-19.45 333.73-20.03 333.35-20.6 332.35-20.8L332.35-20.8 331.65-20.95 331.65-21.85 340.4-24.75 341-24.2 340.85-17.1 340.85-3.6Q340.85-2.6 341.23-2 341.6-1.4 342.55-1.1L342.55-1.1 343.1-0.95 343.1 0ZM356.1-8.55L356.1-8.55Q352.8-8.55 350.45-9.65L350.45-9.65 350.45-7.85Q350.45-6.35 351.95-6.05L351.95-6.05 360.85-4.4Q363.4-3.9 365.35-3.18 367.3-2.45 368.4-1.13 369.5 0.2 369.5 2.45L369.5 2.45Q369.5 4.85 367.93 6.93 366.35 9 363.27 10.28 360.2 11.55 355.6 11.55L355.6 11.55Q351.65 11.55 349.32 10.73 347 9.9 346 8.6 345 7.3 345 5.8L345 5.8Q345 4 346.23 2.2 347.45 0.4 349.4-0.8L349.4-0.8Q346.35-1.95 346.35-4.45L346.35-4.45Q346.35-5.4 346.8-6.2 347.25-7 347.9-7.8L347.9-7.8 349.7-10.05Q346.1-12.15 346.1-16.6L346.1-16.6Q346.1-20.25 348.68-22.5 351.25-24.75 356.1-24.75L356.1-24.75Q360.95-24.75 363.6-22.5L363.6-22.5Q365.2-22.75 366.6-23.3 368-23.85 369.2-24.8L369.2-24.8 369.9-24.3 369.9-21.5 364.5-21.5Q366.1-19.5 366.1-16.6L366.1-16.6Q366.1-13.05 363.52-10.8 360.95-8.55 356.1-8.55ZM356-9.9L356-9.9Q358.1-9.9 359.07-11.53 360.05-13.15 360.05-16.75L360.05-16.75Q360.05-20.3 359.1-21.85 358.15-23.4 356.15-23.4L356.15-23.4Q354.15-23.4 353.18-21.83 352.2-20.25 352.2-16.65L352.2-16.65Q352.2-13.05 353.1-11.48 354-9.9 356-9.9ZM348.9 4.35L348.9 4.35Q348.9 7.1 350.65 8.47 352.4 9.85 356.2 9.85L356.2 9.85Q360.4 9.85 362.43 8.47 364.45 7.1 364.45 4.85L364.45 4.85Q364.45 3.45 363.43 2.65 362.4 1.85 360 1.4L360 1.4 351.05-0.35Q350.85-0.4 350.65-0.45L350.65-0.45Q349.9 0.55 349.4 1.85 348.9 3.15 348.9 4.35ZM383.15 0L371.75 0 371.75-1 372.4-1.2Q374.2-1.75 374.2-3.7L374.2-3.7 374.2-29.45Q374.2-30.5 373.85-31.03 373.5-31.55 372.5-31.8L372.5-31.8 371.75-32 371.75-32.95 380.2-35.1 381-34.65 380.8-27.6 380.8-21.2Q382.55-22.65 384.63-23.7 386.7-24.75 389.1-24.75L389.1-24.75Q392.4-24.75 394.28-22.9 396.15-21.05 396.15-17.2L396.15-17.2 396.15-3.65Q396.15-2.65 396.55-2.05 396.95-1.45 397.95-1.15L397.95-1.15 398.4-1 398.4 0 387 0 387-1 387.6-1.2Q389.4-1.7 389.4-3.7L389.4-3.7 389.4-18.15Q389.4-20.2 388.7-21 388-21.8 386.25-21.8L386.25-21.8Q385.05-21.8 383.73-21.35 382.4-20.9 380.95-19.85L380.95-19.85 380.95-3.6Q380.95-2.6 381.35-2 381.75-1.4 382.7-1.15L382.7-1.15 383.15-1 383.15 0ZM409.8 0.7L409.8 0.7Q406.7 0.7 404.93-0.83 403.15-2.35 403.15-5.8L403.15-5.8Q403.15-7 403.18-8.08 403.2-9.15 403.2-10.6L403.2-10.6 403.2-22.45 399.65-22.45 399.65-23.55 401-23.75Q402.45-24 403.48-24.65 404.5-25.3 405.35-26.45L405.35-26.45 408.6-30.95 410.1-30.95 409.95-24 415.65-24 415.65-22.45 409.9-22.45 409.9-5.4Q409.9-3.6 410.68-2.7 411.45-1.8 412.6-1.8L412.6-1.8Q413.6-1.8 414.4-2.27 415.2-2.75 416-3.55L416-3.55 416.65-2.8Q415.7-1.15 414-0.23 412.3 0.7 409.8 0.7ZM441.1 11.55L429.3 11.55 429.3 10.6 429.95 10.4Q430.95 10.15 431.35 9.58 431.75 9 431.75 7.95L431.75 7.95Q431.75 5.9 431.77 4.08 431.8 2.25 431.8 0.55L431.8 0.55 431.8-13.2Q431.8-14.75 431.8-15.88 431.8-17 431.75-18.4L431.75-18.4Q431.75-19.45 431.4-20.03 431.05-20.6 430.05-20.8L430.05-20.8 429.3-20.95 429.3-21.85 437.35-24.75 437.95-24.25 438.4-22.4Q441.85-24.75 446.2-24.75L446.2-24.75Q450.45-24.75 453.02-21.55 455.6-18.35 455.6-12.1L455.6-12.1Q455.6-6.05 452.77-2.68 449.95 0.7 445.1 0.7L445.1 0.7Q443.15 0.7 441.43 0.35 439.7 0 438.35-0.7L438.35-0.7 438.35 0.8Q438.35 2.3 438.38 4.05 438.4 5.8 438.4 7.85L438.4 7.85Q438.4 9.85 440.15 10.35L440.15 10.35 441.1 10.6 441.1 11.55ZM442.75-1.3L442.75-1.3Q445.4-1.3 446.93-3.68 448.45-6.05 448.45-11.9L448.45-11.9Q448.45-17.7 447-20.03 445.55-22.35 442.9-22.35L442.9-22.35Q441.95-22.35 440.85-22.05 439.75-21.75 438.5-21.05L438.5-21.05 438.5-2.15Q440.5-1.3 442.75-1.3ZM470.4 0L457.9 0 457.9-0.95 458.65-1.2Q459.65-1.45 460.03-2.05 460.4-2.65 460.4-3.65L460.4-3.65 460.4-18.3Q460.35-19.4 460-19.98 459.65-20.55 458.65-20.75L458.65-20.75 457.9-20.95 457.9-21.85 466.05-24.75 466.65-24.2 467.1-19.8 467.1-19.45Q467.85-20.85 469-22.05 470.15-23.25 471.5-24 472.85-24.75 474.2-24.75L474.2-24.75Q476.1-24.75 477.05-23.75 478-22.75 478-21.2L478-21.2Q478-19.5 477.05-18.63 476.1-17.75 474.75-17.75L474.75-17.75Q472.75-17.75 471.3-19.55L471.3-19.55 471.2-19.65Q470.7-20.25 470.08-20.33 469.45-20.4 468.85-19.7L468.85-19.7Q468.35-19.2 467.93-18.53 467.5-17.85 467.15-16.95L467.15-16.95 467.15-3.85Q467.15-2.9 467.55-2.27 467.95-1.65 468.9-1.4L468.9-1.4 470.4-0.95 470.4 0ZM485.45-27.5L485.45-27.5Q483.8-27.5 482.65-28.55 481.5-29.6 481.5-31.2L481.5-31.2Q481.5-32.85 482.65-33.88 483.8-34.9 485.45-34.9L485.45-34.9Q487.1-34.9 488.25-33.88 489.4-32.85 489.4-31.2L489.4-31.2Q489.4-29.6 488.25-28.55 487.1-27.5 485.45-27.5ZM491.15 0L479.7 0 479.7-0.95 480.45-1.15Q481.45-1.45 481.8-2.05 482.15-2.65 482.2-3.65L482.2-3.65 482.2-12.85Q482.2-14.4 482.2-15.73 482.2-17.05 482.15-18.45L482.15-18.45Q482.15-19.45 481.78-20.03 481.4-20.6 480.4-20.8L480.4-20.8 479.7-20.95 479.7-21.85 488.45-24.75 489.05-24.2 488.9-17.1 488.9-3.6Q488.9-2.6 489.28-2 489.65-1.4 490.6-1.1L490.6-1.1 491.15-0.95 491.15 0ZM505.6 0.7L505.6 0.7Q502.2 0.7 499.45-0.78 496.7-2.25 495.13-5.08 493.55-7.9 493.55-11.95L493.55-11.95Q493.55-16 495.3-18.85 497.05-21.7 499.98-23.23 502.9-24.75 506.4-24.75L506.4-24.75Q509.25-24.75 511.25-23.8 513.25-22.85 514.3-21.38 515.35-19.9 515.35-18.25L515.35-18.25Q515.35-16.85 514.52-16.1 513.7-15.35 512.4-15.35L512.4-15.35Q511-15.35 510.13-16.35 509.25-17.35 509.1-18.9L509.1-18.9Q509.05-19.9 509.13-20.6 509.2-21.3 509.1-21.95L509.1-21.95Q508.9-22.8 508.43-23.1 507.95-23.4 507.1-23.4L507.1-23.4Q503.95-23.4 502.28-20.88 500.6-18.35 500.6-12.7L500.6-12.7Q500.6-7.85 502.45-5.25 504.3-2.65 508.2-2.65L508.2-2.65Q510.5-2.65 512-3.53 513.5-4.4 514.75-6.05L514.75-6.05 515.55-5.45Q514.3-2.45 511.73-0.88 509.15 0.7 505.6 0.7ZM530.4-24.75L530.4-24.75Q533.55-24.75 535.8-23.45 538.05-22.15 539.27-19.88 540.5-17.6 540.5-14.65L540.5-14.65Q540.5-14 540.45-13.43 540.4-12.85 540.25-12.35L540.25-12.35 525.2-12.35Q525.25-7.2 527.13-4.95 529-2.7 532.6-2.7L532.6-2.7Q535.1-2.7 536.65-3.53 538.2-4.35 539.5-5.85L539.5-5.85 540.3-5.1Q538.8-2.35 536.23-0.83 533.65 0.7 530.1 0.7L530.1 0.7Q526.55 0.7 523.85-0.8 521.15-2.3 519.63-5.13 518.1-7.95 518.1-11.9L518.1-11.9Q518.1-16 519.88-18.85 521.65-21.7 524.48-23.23 527.3-24.75 530.4-24.75ZM530.15-23.3L530.15-23.3Q528.7-23.3 527.63-22.48 526.55-21.65 525.93-19.58 525.3-17.5 525.2-13.75L525.2-13.75 534.15-13.75Q534.7-18.8 533.75-21.05 532.8-23.3 530.15-23.3Z" opacity="1" transform="matrix(1,0,0,1,0,0)" fill="#4b91f1" class="slogan-text-1" data-fill-palette-color="secondary" id="text-1"></path></svg></g></svg></g></svg></g></svg></g><g transform="matrix(1,0,0,1,40.190232233321325,0)"><svg viewBox="0 0 111.61953553335735 79.03521662066613" height="79.03521662066613" width="111.61953553335735"><g><svg xmlns="http://www.w3.org/2000/svg" viewBox="6 13.180000305175781 52 36.81999969482422" x="0" y="0" height="79.03521662066613" width="111.61953553335735" class="icon-icon-0" data-fill-palette-color="accent" id="icon-0"><path d="M43.39 28H55.54L32 13.18 8.46 28H20.59l10.87-6.85a1 1 0 0 1 1.07 0L43.37 28Z" fill="#1ebbd7" data-fill-palette-color="accent"></path><polygon points="24.35 28 39.65 28 32 23.18 24.35 28" fill="#1ebbd7" data-fill-palette-color="accent"></polygon><polygon points="19.13 43.1 32 43.19 32 35.88 19.02 35.94 19.13 43.1" fill="#1ebbd7" data-fill-palette-color="accent"></polygon><rect x="38" y="40" width="6" height="10" fill="#1ebbd7" data-fill-palette-color="accent"></rect><polygon points="50 50 58 50 58 45.37 50 45.31 50 50" fill="#1ebbd7" data-fill-palette-color="accent"></polygon><path d="M34 50h2V39a1 1 0 0 1 1-1h8a1 1 0 0 1 1 1V50h2V36H34v8.2h0Z" fill="#1ebbd7" data-fill-palette-color="accent"></path><polygon points="6 50 17.23 50 17.16 45.08 6 45.01 6 50" fill="#1ebbd7" data-fill-palette-color="accent"></polygon><polygon points="32 45.19 19.16 45.1 19.23 50 32 50 32 45.19" fill="#1ebbd7" data-fill-palette-color="accent"></polygon><polygon points="6 35.99 6 43.01 17.13 43.08 17.02 35.94 6 35.99" fill="#1ebbd7" data-fill-palette-color="accent"></polygon><polygon points="50 43.31 58 43.37 58 35.76 50 35.79 50 43.31" fill="#1ebbd7" data-fill-palette-color="accent"></polygon><polygon points="6 33.99 58 33.76 58 30 6 30 6 33.99" fill="#1ebbd7" data-fill-palette-color="accent"></polygon></svg></g></svg></g><g></g></svg></g></svg></g></svg></g></svg></g><defs></defs></svg><rect width="320" height="360" fill="none" stroke="none" visibility="hidden"></rect></g></svg></g></svg>